<mxfile host="app.diagrams.net" modified="2023-10-16T18:13:08.190Z" agent="Mozilla/5.0 (Windows NT 10.0; Win64; x64) AppleWebKit/537.36 (KHTML, like Gecko) Chrome/118.0.0.0 Safari/537.36" etag="WeGJ8YLoh-PbiNpV6tud" version="22.0.4" type="device">
  <diagram name="Página-1" id="EKGsYuw0FnHCdSLjsaUu">
    <mxGraphModel dx="2734" dy="2112" grid="1" gridSize="10" guides="1" tooltips="1" connect="1" arrows="1" fold="1" page="1" pageScale="1" pageWidth="827" pageHeight="1169" math="0" shadow="0">
      <root>
        <mxCell id="0" />
        <mxCell id="1" parent="0" />
        <mxCell id="tkP0ir2uq5uonUyYaova-1" value="Usuario" style="swimlane;fontStyle=0;childLayout=stackLayout;horizontal=1;startSize=26;horizontalStack=0;resizeParent=1;resizeParentMax=0;resizeLast=0;collapsible=1;marginBottom=0;align=center;fontSize=14;" parent="1" vertex="1">
          <mxGeometry x="150" y="225" width="160" height="266" as="geometry" />
        </mxCell>
        <mxCell id="tkP0ir2uq5uonUyYaova-50" value="&lt;u&gt;id&lt;/u&gt;" style="text;strokeColor=none;fillColor=none;spacingLeft=4;spacingRight=4;overflow=hidden;rotatable=0;points=[[0,0.5],[1,0.5]];portConstraint=eastwest;fontSize=12;whiteSpace=wrap;html=1;" parent="tkP0ir2uq5uonUyYaova-1" vertex="1">
          <mxGeometry y="26" width="160" height="30" as="geometry" />
        </mxCell>
        <mxCell id="tkP0ir2uq5uonUyYaova-54" value="foto" style="text;strokeColor=none;fillColor=none;spacingLeft=4;spacingRight=4;overflow=hidden;rotatable=0;points=[[0,0.5],[1,0.5]];portConstraint=eastwest;fontSize=12;whiteSpace=wrap;html=1;" parent="tkP0ir2uq5uonUyYaova-1" vertex="1">
          <mxGeometry y="56" width="160" height="30" as="geometry" />
        </mxCell>
        <mxCell id="tkP0ir2uq5uonUyYaova-53" value="apellidos" style="text;strokeColor=none;fillColor=none;spacingLeft=4;spacingRight=4;overflow=hidden;rotatable=0;points=[[0,0.5],[1,0.5]];portConstraint=eastwest;fontSize=12;whiteSpace=wrap;html=1;" parent="tkP0ir2uq5uonUyYaova-1" vertex="1">
          <mxGeometry y="86" width="160" height="30" as="geometry" />
        </mxCell>
        <mxCell id="tkP0ir2uq5uonUyYaova-52" value="nombre" style="text;strokeColor=none;fillColor=none;spacingLeft=4;spacingRight=4;overflow=hidden;rotatable=0;points=[[0,0.5],[1,0.5]];portConstraint=eastwest;fontSize=12;whiteSpace=wrap;html=1;" parent="tkP0ir2uq5uonUyYaova-1" vertex="1">
          <mxGeometry y="116" width="160" height="30" as="geometry" />
        </mxCell>
        <mxCell id="tkP0ir2uq5uonUyYaova-51" value="contraseña" style="text;strokeColor=none;fillColor=none;spacingLeft=4;spacingRight=4;overflow=hidden;rotatable=0;points=[[0,0.5],[1,0.5]];portConstraint=eastwest;fontSize=12;whiteSpace=wrap;html=1;" parent="tkP0ir2uq5uonUyYaova-1" vertex="1">
          <mxGeometry y="146" width="160" height="30" as="geometry" />
        </mxCell>
        <mxCell id="tkP0ir2uq5uonUyYaova-3" value="correo" style="text;strokeColor=none;fillColor=none;spacingLeft=4;spacingRight=4;overflow=hidden;rotatable=0;points=[[0,0.5],[1,0.5]];portConstraint=eastwest;fontSize=12;whiteSpace=wrap;html=1;" parent="tkP0ir2uq5uonUyYaova-1" vertex="1">
          <mxGeometry y="176" width="160" height="30" as="geometry" />
        </mxCell>
        <mxCell id="tkP0ir2uq5uonUyYaova-2" value="direccion" style="text;strokeColor=none;fillColor=none;spacingLeft=4;spacingRight=4;overflow=hidden;rotatable=0;points=[[0,0.5],[1,0.5]];portConstraint=eastwest;fontSize=12;whiteSpace=wrap;html=1;" parent="tkP0ir2uq5uonUyYaova-1" vertex="1">
          <mxGeometry y="206" width="160" height="30" as="geometry" />
        </mxCell>
        <mxCell id="tkP0ir2uq5uonUyYaova-56" value="is_celebrity" style="text;strokeColor=none;fillColor=none;spacingLeft=4;spacingRight=4;overflow=hidden;rotatable=0;points=[[0,0.5],[1,0.5]];portConstraint=eastwest;fontSize=12;whiteSpace=wrap;html=1;" parent="tkP0ir2uq5uonUyYaova-1" vertex="1">
          <mxGeometry y="236" width="160" height="30" as="geometry" />
        </mxCell>
        <mxCell id="tkP0ir2uq5uonUyYaova-13" value="Grupo" style="swimlane;fontStyle=0;childLayout=stackLayout;horizontal=1;startSize=26;horizontalStack=0;resizeParent=1;resizeParentMax=0;resizeLast=0;collapsible=1;marginBottom=0;align=center;fontSize=14;" parent="1" vertex="1">
          <mxGeometry x="150" y="-116" width="160" height="116" as="geometry" />
        </mxCell>
        <mxCell id="tkP0ir2uq5uonUyYaova-15" value="id_grupo" style="text;strokeColor=none;fillColor=none;spacingLeft=4;spacingRight=4;overflow=hidden;rotatable=0;points=[[0,0.5],[1,0.5]];portConstraint=eastwest;fontSize=12;whiteSpace=wrap;html=1;" parent="tkP0ir2uq5uonUyYaova-13" vertex="1">
          <mxGeometry y="26" width="160" height="30" as="geometry" />
        </mxCell>
        <mxCell id="tkP0ir2uq5uonUyYaova-14" value="nombre" style="text;strokeColor=none;fillColor=none;spacingLeft=4;spacingRight=4;overflow=hidden;rotatable=0;points=[[0,0.5],[1,0.5]];portConstraint=eastwest;fontSize=12;whiteSpace=wrap;html=1;" parent="tkP0ir2uq5uonUyYaova-13" vertex="1">
          <mxGeometry y="56" width="160" height="30" as="geometry" />
        </mxCell>
        <mxCell id="tkP0ir2uq5uonUyYaova-16" value="num_contactos" style="text;strokeColor=none;fillColor=none;spacingLeft=4;spacingRight=4;overflow=hidden;rotatable=0;points=[[0,0.5],[1,0.5]];portConstraint=eastwest;fontSize=12;whiteSpace=wrap;html=1;" parent="tkP0ir2uq5uonUyYaova-13" vertex="1">
          <mxGeometry y="86" width="160" height="30" as="geometry" />
        </mxCell>
        <mxCell id="tkP0ir2uq5uonUyYaova-34" value="Comentario" style="swimlane;fontStyle=0;childLayout=stackLayout;horizontal=1;startSize=26;horizontalStack=0;resizeParent=1;resizeParentMax=0;resizeLast=0;collapsible=1;marginBottom=0;align=center;fontSize=14;" parent="1" vertex="1">
          <mxGeometry x="-390" y="285" width="160" height="146" as="geometry" />
        </mxCell>
        <mxCell id="tkP0ir2uq5uonUyYaova-35" value="&lt;u&gt;id&lt;/u&gt;" style="text;strokeColor=none;fillColor=none;spacingLeft=4;spacingRight=4;overflow=hidden;rotatable=0;points=[[0,0.5],[1,0.5]];portConstraint=eastwest;fontSize=12;whiteSpace=wrap;html=1;" parent="tkP0ir2uq5uonUyYaova-34" vertex="1">
          <mxGeometry y="26" width="160" height="30" as="geometry" />
        </mxCell>
        <mxCell id="tkP0ir2uq5uonUyYaova-36" value="texto" style="text;strokeColor=none;fillColor=none;spacingLeft=4;spacingRight=4;overflow=hidden;rotatable=0;points=[[0,0.5],[1,0.5]];portConstraint=eastwest;fontSize=12;whiteSpace=wrap;html=1;" parent="tkP0ir2uq5uonUyYaova-34" vertex="1">
          <mxGeometry y="56" width="160" height="30" as="geometry" />
        </mxCell>
        <mxCell id="tkP0ir2uq5uonUyYaova-37" value="imagen" style="text;strokeColor=none;fillColor=none;spacingLeft=4;spacingRight=4;overflow=hidden;rotatable=0;points=[[0,0.5],[1,0.5]];portConstraint=eastwest;fontSize=12;whiteSpace=wrap;html=1;" parent="tkP0ir2uq5uonUyYaova-34" vertex="1">
          <mxGeometry y="86" width="160" height="30" as="geometry" />
        </mxCell>
        <mxCell id="tkP0ir2uq5uonUyYaova-38" value="privacidad" style="text;strokeColor=none;fillColor=none;spacingLeft=4;spacingRight=4;overflow=hidden;rotatable=0;points=[[0,0.5],[1,0.5]];portConstraint=eastwest;fontSize=12;whiteSpace=wrap;html=1;" parent="tkP0ir2uq5uonUyYaova-34" vertex="1">
          <mxGeometry y="116" width="160" height="30" as="geometry" />
        </mxCell>
        <mxCell id="tkP0ir2uq5uonUyYaova-41" value="Telefono" style="swimlane;fontStyle=0;childLayout=stackLayout;horizontal=1;startSize=26;horizontalStack=0;resizeParent=1;resizeParentMax=0;resizeLast=0;collapsible=1;marginBottom=0;align=center;fontSize=14;" parent="1" vertex="1">
          <mxGeometry x="630" y="330" width="180" height="56" as="geometry" />
        </mxCell>
        <mxCell id="tkP0ir2uq5uonUyYaova-42" value="&lt;u&gt;telefono&lt;/u&gt;" style="text;strokeColor=none;fillColor=none;spacingLeft=4;spacingRight=4;overflow=hidden;rotatable=0;points=[[0,0.5],[1,0.5]];portConstraint=eastwest;fontSize=12;whiteSpace=wrap;html=1;" parent="tkP0ir2uq5uonUyYaova-41" vertex="1">
          <mxGeometry y="26" width="180" height="30" as="geometry" />
        </mxCell>
        <mxCell id="tkP0ir2uq5uonUyYaova-72" style="edgeStyle=orthogonalEdgeStyle;rounded=0;orthogonalLoop=1;jettySize=auto;html=1;entryX=1;entryY=0.5;entryDx=0;entryDy=0;endArrow=ERzeroToMany;endFill=0;" parent="1" source="tkP0ir2uq5uonUyYaova-57" target="tkP0ir2uq5uonUyYaova-2" edge="1">
          <mxGeometry relative="1" as="geometry" />
        </mxCell>
        <mxCell id="tkP0ir2uq5uonUyYaova-73" style="edgeStyle=orthogonalEdgeStyle;rounded=0;orthogonalLoop=1;jettySize=auto;html=1;endArrow=ERzeroToMany;endFill=0;" parent="1" source="tkP0ir2uq5uonUyYaova-57" target="tkP0ir2uq5uonUyYaova-1" edge="1">
          <mxGeometry relative="1" as="geometry">
            <Array as="points">
              <mxPoint x="260" y="615" />
            </Array>
          </mxGeometry>
        </mxCell>
        <mxCell id="tkP0ir2uq5uonUyYaova-57" value="Bloqueado" style="shape=rhombus;perimeter=rhombusPerimeter;whiteSpace=wrap;html=1;align=center;" parent="1" vertex="1">
          <mxGeometry x="320" y="585" width="120" height="60" as="geometry" />
        </mxCell>
        <mxCell id="tkP0ir2uq5uonUyYaova-67" style="edgeStyle=orthogonalEdgeStyle;rounded=0;orthogonalLoop=1;jettySize=auto;html=1;endArrow=ERmandOne;endFill=0;" parent="1" source="tkP0ir2uq5uonUyYaova-58" target="tkP0ir2uq5uonUyYaova-1" edge="1">
          <mxGeometry relative="1" as="geometry" />
        </mxCell>
        <mxCell id="tkP0ir2uq5uonUyYaova-68" style="edgeStyle=orthogonalEdgeStyle;rounded=0;orthogonalLoop=1;jettySize=auto;html=1;endArrow=ERzeroToMany;endFill=0;" parent="1" source="tkP0ir2uq5uonUyYaova-58" target="tkP0ir2uq5uonUyYaova-34" edge="1">
          <mxGeometry relative="1" as="geometry" />
        </mxCell>
        <mxCell id="tkP0ir2uq5uonUyYaova-58" value="Comenta" style="shape=rhombus;perimeter=rhombusPerimeter;whiteSpace=wrap;html=1;align=center;" parent="1" vertex="1">
          <mxGeometry x="-130" y="328" width="120" height="60" as="geometry" />
        </mxCell>
        <mxCell id="tkP0ir2uq5uonUyYaova-69" style="edgeStyle=orthogonalEdgeStyle;rounded=0;orthogonalLoop=1;jettySize=auto;html=1;entryX=0;entryY=0.5;entryDx=0;entryDy=0;endArrow=ERzeroToMany;endFill=0;" parent="1" source="tkP0ir2uq5uonUyYaova-59" target="tkP0ir2uq5uonUyYaova-2" edge="1">
          <mxGeometry relative="1" as="geometry" />
        </mxCell>
        <mxCell id="tkP0ir2uq5uonUyYaova-71" style="edgeStyle=orthogonalEdgeStyle;rounded=0;orthogonalLoop=1;jettySize=auto;html=1;endArrow=ERzeroToMany;endFill=0;" parent="1" source="tkP0ir2uq5uonUyYaova-59" target="tkP0ir2uq5uonUyYaova-1" edge="1">
          <mxGeometry relative="1" as="geometry">
            <Array as="points">
              <mxPoint x="200" y="615" />
            </Array>
          </mxGeometry>
        </mxCell>
        <mxCell id="tkP0ir2uq5uonUyYaova-59" value="Contacto" style="shape=rhombus;perimeter=rhombusPerimeter;whiteSpace=wrap;html=1;align=center;" parent="1" vertex="1">
          <mxGeometry x="30" y="585" width="120" height="60" as="geometry" />
        </mxCell>
        <mxCell id="tkP0ir2uq5uonUyYaova-63" style="edgeStyle=orthogonalEdgeStyle;rounded=0;orthogonalLoop=1;jettySize=auto;html=1;endArrow=ERzeroToMany;endFill=0;" parent="1" source="tkP0ir2uq5uonUyYaova-60" target="tkP0ir2uq5uonUyYaova-13" edge="1">
          <mxGeometry relative="1" as="geometry">
            <Array as="points">
              <mxPoint x="160" y="60" />
              <mxPoint x="160" y="60" />
            </Array>
          </mxGeometry>
        </mxCell>
        <mxCell id="tkP0ir2uq5uonUyYaova-64" style="edgeStyle=orthogonalEdgeStyle;rounded=0;orthogonalLoop=1;jettySize=auto;html=1;endArrow=ERmandOne;endFill=0;" parent="1" source="tkP0ir2uq5uonUyYaova-60" target="tkP0ir2uq5uonUyYaova-1" edge="1">
          <mxGeometry relative="1" as="geometry">
            <Array as="points">
              <mxPoint x="160" y="180" />
              <mxPoint x="160" y="180" />
            </Array>
          </mxGeometry>
        </mxCell>
        <mxCell id="tkP0ir2uq5uonUyYaova-60" value="Organizar" style="shape=rhombus;perimeter=rhombusPerimeter;whiteSpace=wrap;html=1;align=center;" parent="1" vertex="1">
          <mxGeometry x="100" y="90" width="120" height="60" as="geometry" />
        </mxCell>
        <mxCell id="tkP0ir2uq5uonUyYaova-65" style="edgeStyle=orthogonalEdgeStyle;rounded=0;orthogonalLoop=1;jettySize=auto;html=1;endArrow=ERmandOne;endFill=0;" parent="1" source="tkP0ir2uq5uonUyYaova-61" target="tkP0ir2uq5uonUyYaova-1" edge="1">
          <mxGeometry relative="1" as="geometry" />
        </mxCell>
        <mxCell id="tkP0ir2uq5uonUyYaova-66" style="edgeStyle=orthogonalEdgeStyle;rounded=0;orthogonalLoop=1;jettySize=auto;html=1;endArrow=ERzeroToMany;endFill=0;" parent="1" source="tkP0ir2uq5uonUyYaova-61" target="tkP0ir2uq5uonUyYaova-41" edge="1">
          <mxGeometry relative="1" as="geometry" />
        </mxCell>
        <mxCell id="tkP0ir2uq5uonUyYaova-61" value="Tiene" style="shape=rhombus;perimeter=rhombusPerimeter;whiteSpace=wrap;html=1;align=center;" parent="1" vertex="1">
          <mxGeometry x="400" y="328" width="120" height="60" as="geometry" />
        </mxCell>
        <mxCell id="tkP0ir2uq5uonUyYaova-75" style="edgeStyle=orthogonalEdgeStyle;rounded=0;orthogonalLoop=1;jettySize=auto;html=1;endArrow=ERzeroToMany;endFill=0;" parent="1" source="tkP0ir2uq5uonUyYaova-74" target="tkP0ir2uq5uonUyYaova-13" edge="1">
          <mxGeometry relative="1" as="geometry">
            <Array as="points">
              <mxPoint x="300" y="20" />
              <mxPoint x="300" y="20" />
            </Array>
          </mxGeometry>
        </mxCell>
        <mxCell id="tkP0ir2uq5uonUyYaova-76" style="edgeStyle=orthogonalEdgeStyle;rounded=0;orthogonalLoop=1;jettySize=auto;html=1;endArrow=ERoneToMany;endFill=0;" parent="1" source="tkP0ir2uq5uonUyYaova-74" target="tkP0ir2uq5uonUyYaova-1" edge="1">
          <mxGeometry relative="1" as="geometry">
            <Array as="points">
              <mxPoint x="300" y="200" />
              <mxPoint x="300" y="200" />
            </Array>
          </mxGeometry>
        </mxCell>
        <mxCell id="tkP0ir2uq5uonUyYaova-74" value="Pertenece" style="shape=rhombus;perimeter=rhombusPerimeter;whiteSpace=wrap;html=1;align=center;" parent="1" vertex="1">
          <mxGeometry x="240" y="90" width="120" height="60" as="geometry" />
        </mxCell>
        <mxCell id="zKnp5lNArlJdwyg9ucRR-1" value="Grupo(id_grupo_pk, nombre, num_contactos, id_usuario_fk)&lt;br&gt;Usuario(id_pk, foto, apellidos, nombre, contraseña, correo, direccion, is_celebrity)&lt;br&gt;Comentario(id_pk, texto, image, privacidad, id_usuario_fk)&lt;br&gt;Telefono(telefono_pk, id_usuario_fk)&lt;br&gt;grupo_usuario(id_grupo_pk_fk, id_usuario_pk_fk)&lt;br&gt;usuario_bloqueados(id_usuario_pk, id_usuario_bloqueado_pk)&lt;br&gt;usuario_contactos(id_usuario_pk, id_usuario_contacto_pk)&lt;br&gt;" style="text;html=1;strokeColor=none;fillColor=none;align=left;verticalAlign=middle;whiteSpace=wrap;rounded=0;" vertex="1" parent="1">
          <mxGeometry x="-400" y="-20" width="850" height="230" as="geometry" />
        </mxCell>
      </root>
    </mxGraphModel>
  </diagram>
</mxfile>
